<?xml version="1.0" standalone="no"?>
<!DOCTYPE svg PUBLIC "-//W3C//DTD SVG 20010904//EN"
 "http://www.w3.org/TR/2001/REC-SVG-20010904/DTD/svg10.dtd">
<svg version="1.0" xmlns="http://www.w3.org/2000/svg"
 width="612.000000pt" height="612.000000pt" viewBox="0 0 612.000000 612.000000"
 preserveAspectRatio="xMidYMid meet">
<metadata>
Created by potrace 1.14, written by Peter Selinger 2001-2017
</metadata>
<g transform="translate(0.000000,612.000000) scale(0.100000,-0.100000)"
fill="#000000" stroke="none">
<path d="M0 3060 l0 -3060 3060 0 3060 0 0 3060 0 3060 -3060 0 -3060 0 0
-3060z m1299 1268 c19 -59 160 -504 307 -965 132 -419 198 -627 292 -920 53
-167 99 -300 103 -295 4 4 18 43 32 87 47 150 145 460 222 700 42 132 123 386
180 565 57 179 136 426 175 550 40 124 80 250 89 280 l17 55 128 3 128 3 -7
-23 c-4 -13 -40 -126 -80 -253 -72 -225 -174 -545 -240 -755 -37 -118 -221
-695 -325 -1020 -38 -118 -97 -304 -131 -413 l-63 -197 -127 0 -127 0 -26 77
c-42 131 -210 660 -341 1073 -18 58 -86 269 -150 470 -64 201 -146 457 -181
570 -36 113 -83 260 -105 327 -21 67 -39 127 -39 133 0 6 45 10 124 10 l124 0
21 -62z m464 -128 c32 -102 94 -295 137 -430 43 -135 108 -339 145 -454 37
-115 69 -223 72 -240 4 -23 -13 -87 -58 -222 -34 -104 -63 -184 -65 -179 -2 6
-41 129 -88 275 -46 146 -114 360 -151 475 -37 116 -114 359 -172 540 -110
346 -133 418 -133 423 0 1 57 1 127 0 l127 -3 59 -185z m1823 -390 c308 -970
318 -1000 323 -1000 3 0 37 100 76 223 38 122 97 308 130 412 34 105 115 360
181 567 l119 378 129 0 c102 0 127 -3 123 -13 -3 -8 -60 -186 -127 -398 -67
-211 -141 -445 -165 -519 -24 -74 -74 -229 -110 -345 -37 -115 -134 -421 -217
-680 -82 -258 -166 -523 -186 -588 l-37 -118 -129 3 -129 3 -13 40 c-21 65
-281 884 -346 1092 l-61 191 58 189 c32 103 61 191 65 196 3 4 22 -43 42 -105
20 -62 81 -255 136 -428 222 -697 246 -770 252 -763 4 5 23 62 44 129 l37 120
-216 680 c-119 373 -232 728 -251 789 -34 106 -41 123 -47 114 -2 -2 -31 -94
-66 -204 -35 -110 -69 -218 -77 -240 -8 -22 -76 -238 -153 -480 -201 -636
-263 -832 -347 -1093 l-75 -232 -124 0 c-69 0 -125 3 -125 6 0 6 147 473 360
1139 61 193 125 393 142 445 16 52 93 293 170 535 77 242 146 462 154 488 l15
48 131 -3 131 -3 183 -575z m1504 574 c0 -9 -252 -807 -365 -1154 -29 -91
-108 -338 -175 -550 -67 -212 -155 -491 -196 -620 -42 -129 -82 -256 -90 -282
l-16 -48 -124 0 c-86 0 -124 3 -124 11 0 10 83 272 355 1124 40 127 117 367
170 535 77 243 292 920 310 978 3 9 38 12 130 12 69 0 125 -3 125 -6z"/>
</g>
</svg>
